# AST/ASF file generated using VICON BodyLanguage
# -----------------------------------------------
:version 1.10
:name VICON
:units
  mass 1.0
  length 0.45
  angle deg
:documentation
   .ast/.asf automatically generated from VICON data using
   VICON BodyBuilder and BodyLanguage model FoxedUp or BRILLIANT.MOD
:root
   order TX TY TZ RX RY RZ
   axis XYZ
   position 0 0 0  
   orientation 0 0 0 
:bonedata
  begin
     id 1 
     name lhipjoint
     direction 0.606768 -0.715223 0.346827 
     length 2.41543 
     axis 0 0 0  XYZ
  end
  begin
     id 2 
     name lfemur
     direction 0.34202 -0.939693 0  
     length 7.2778  
     axis 0 0 20  XYZ
    dof rx ry rz
    limits (-160.0 20.0)
           (-70.0 70.0)
           (-60.0 70.0)
  end
  begin
     id 3 
     name ltibia
     direction 0.34202 -0.939693 0   
     length 7.61811   
     axis 0 0 20   XYZ
    dof rx
    limits (-10.0 170.0)
  end
  begin
     id 4 
     name lfoot
     direction 0.0823924 -0.226371 0.97055   
     length 2.33618   
     axis -90 7.62852e-016 20   XYZ
    dof rx rz
    limits (-45.0 90.0)
           (-70.0 20.0)
  end
  begin
     id 5 
     name ltoes
     direction 1.53554e-011 -4.21934e-011 1   
     length 1.17015   
     axis -90 7.62852e-016 20   XYZ
    dof rx
    limits (-90.0 20.0)
  end
  begin
     id 6 
     name rhipjoint
     direction -0.6077 -0.714582 0.346516   
     length 2.4176  
     axis 0 0 0  XYZ 
  end
  begin
     id 7 
     name rfemur
     direction -0.34202 -0.939693 0   
     length 7.28127   
     axis 0 0 -20   XYZ
    dof rx ry rz
    limits (-160.0 20.0)
           (-70.0 70.0)
           (-70.0 60.0)
  end
  begin
     id 8 
     name rtibia
     direction -0.34202 -0.939693 0   
     length 7.77648   
     axis 0 0 -20   XYZ
    dof rx
    limits (-10.0 170.0)
 end
 begin
     id 9 
     name rfoot
     direction -0.0809463 -0.222398 0.97159   
     length 2.37533  
     axis -90 -7.62852e-016 -20   XYZ
    dof rx rz
    limits (-45.0 90.0)
           (-20.0 70.0)
  end
  begin
     id 10 
     name rtoes
     direction -1.53568e-011 -4.21714e-011 1   
     length 1.18972   
     axis -90 -7.62852e-016 -20   XYZ
    dof rx
    limits (-90.0 20.0)
  end
  begin
     id 11 
     name lowerback
     direction 0.010968 0.991932 -0.126297   
     length 2.21698   
     axis 0 0 0   XYZ
    dof rx ry rz
    limits (-20.0 45.0)
           (-30.0 30.0)
           (-30.0 30.0)
  end
  begin
     id 12 
     name upperback
     direction 0.0167007 0.997503 -0.0686276   
     length 2.22371   
     axis 0 0 0   XYZ
    dof rx ry rz
    limits (-20.0 45.0)
           (-30.0 30.0)
           (-30.0 30.0)
  end
  begin
     id 13 
     name thorax
     direction 0.0111721 0.999885 -0.0102878   
     length 2.25242   
     axis 0 0 0   XYZ
    dof rx ry rz
    limits (-20.0 45.0)
           (-30.0 30.0)
           (-30.0 30.0)
  end
  begin
     id 14 
     name lowerneck
     direction -0.0120265 0.990428 0.137508   
     length 1.57674   
     axis 0 0 0   XYZ
    dof rx ry rz
    limits (-20.0 45.0)
           (-30.0 30.0)
           (-30.0 30.0)
  end
  begin
     id 15 
     name upperneck
     direction 0.0175669 0.998907 0.0433089   
     length 1.5618   
     axis 0 0 0   XYZ
    dof rx ry rz
    limits (-20.0 45.0)
           (-30.0 30.0)
           (-30.0 30.0)
  end
  begin
     id 16
     name head
     direction 0.00754609 0.99997 0.00185367  
     length 1.60579  
     axis 0 0 0   XYZ
    dof rx ry rz
    limits (-20.0 45.0)
           (-30.0 30.0)
           (-30.0 30.0)
  end
  begin
     id 17 
     name lclavicle
     direction 0.885866 0.429166 -0.176231  
     length 3.44967  
     axis 0 0 0   XYZ
    dof ry rz
    limits (-20.0 10.0)
           (0.0 20.0)
  end
  begin
     id 18 
     name lhumerus
     direction 1 -4.48973e-011 -1.90255e-027   
     length 5.20607   
     axis 180 -30 -90   XYZ
    dof rx ry rz
    limits (-60.0 90.0)
           (-90.0 90.0)
           (-90.0 90.0)
  end
  begin
     id 19
     name lradius
     direction 1 -4.48956e-011 9.87925e-027   
     length 3.39961   
     axis 180 -30 -90   XYZ
    dof rx
    limits (-10.0 170.0)
  end
  begin
     id 20
     name lwrist
     direction 1 -4.48985e-011 1.73247e-026   
     length 1.6998   
     axis -9.60847e-015 90 90   XYZ
    dof ry
    limits (-180.0 0.0)
 end
  begin
     id 21 
     name lhand
     direction 1 -4.48798e-011 3.46119e-026   
     length 0.519693   
     axis -2.21073e-014 90 90   XYZ
    dof rx rz
    limits (-90.0 90.0)
           (-45.0 45.0)
  end
  begin
     id 22 
     name lfingers
     direction 1 -4.48938e-011 6.92797e-026   
     length 0.41899   
     axis -4.42155e-014 90 90   XYZ
    dof rx
    limits (0.0 90.0)
  end
  begin
     id 23
     name lthumb
     direction 0.707107 -6.34952e-011 0.707107   
     length 0.601588   
     axis -90 45 6.0103e-014   XYZ
    dof rx rz
    limits (-45.0 45.0)
           (-45.0 45.0)
  end
  begin
     id 24 
     name rclavicle
     direction -0.866736 0.456792 -0.200276   
     length 3.45032  
     axis 0 0 0   XYZ 
    dof ry rz
    limits (-10.0 20.0)
           (-20.0 0.0)
  end
  begin
     id 25 
     name rhumerus
     direction -1 -4.4897e-011 8.65094e-028  
     length 5.32214   
     axis 180 30 90   XYZ
    dof rx ry rz
    limits (-90.0 60.0)
           (-90.0 90.0)
           (-90.0 90.0)
  end
  begin
     id 26 
     name rradius
     direction -1 -4.48987e-011 1.08427e-026   
     length 3.51208   
     axis 180 30 90   XYZ
    dof rx
    limits (-10.0 170.0)
  end
  begin
     id 27 
     name rwrist
     direction -1 -4.48961e-011 1.73222e-026   
     length 1.75604   
     axis -9.60847e-015 -90 -90   XYZ
    dof ry
    limits (-180.0 0.0)
  end
  begin
     id 28
     name rhand
     direction -1 -4.48895e-011 3.46314e-026   
     length 0.586681   
     axis -2.21073e-014 -90 -90   XYZ
    dof rx rz
    limits (-90.0 90.0)
           (-45.0 45.0)
  end
  begin
     id 29
     name rfingers
     direction -1 -4.48968e-011 6.92916e-026   
     length 0.472997   
     axis -4.42155e-014 -90 -90   XYZ
    dof rx
    limits (0.0 90.0)
  end
  begin
     id 30
     name rthumb
     direction -0.707107 -6.34848e-011 0.707107   
     length 0.679133   
     axis -90 -45 -6.0103e-014   XYZ
    dof rx rz
    limits (-45.0 45.0)
           (-45.0 45.0)
  end
:hierarchy
  begin
    root lhipjoint rhipjoint lowerback
    lhipjoint lfemur
    lfemur ltibia
    ltibia lfoot
    lfoot ltoes
    rhipjoint rfemur
    rfemur rtibia
    rtibia rfoot
    rfoot rtoes
    lowerback upperback
    upperback thorax
    thorax lowerneck lclavicle rclavicle
    lowerneck upperneck
    upperneck head
    lclavicle lhumerus
    lhumerus lradius
    lradius lwrist
    lwrist lhand lthumb
    lhand lfingers
    rclavicle rhumerus
    rhumerus rradius
    rradius rwrist
    rwrist rhand rthumb
    rhand rfingers
  end

#!OML:ASF H:\Dans Jumps\Project 1\Capture day 1\Session 1\subject.ASF
:FULLY-SPECIFIED
:DEGREES
65
root 0.100791 17.3784 -15.0544 14.0095 -0.933101 -2.12774
lowerback 8.73373 -0.235994 0.75244
upperback 7.97183 -0.307625 1.6694
thorax 3.39339 -0.169513 1.32469
lowerneck -11.8576 0.701711 -0.97106
upperneck 25.9665 1.31052 -0.439581
head 10.2248 0.450668 0.168852
rclavicle 2.68359e-015 -9.64106e-015
rhumerus -27.1542 -3.41697 -85.849
rradius 36.3382
rwrist 17.948
rhand -20.004 -26.358
rfingers 7.12502
rthumb 6.33591 -56.2432
lclavicle 2.68359e-015 -9.64106e-015
lhumerus -26.3433 -9.97771 92.4562
lradius 34.4435
lwrist 21.411
lhand -30.3415 -3.43773
lfingers 7.12502
lthumb -3.64723 26.5108
rfemur -31.6853 -3.76243 20.9426
rtibia 32.0993
rfoot -13.3545 1.21168
rtoes 12.4262
lfemur -31.1924 8.19093 -18.9609
ltibia 31.3421
lfoot -12.3193 3.64258
ltoes 3.97813
66
root 0.103508 17.374 -15.0595 14.0249 -0.939991 -2.12852
lowerback 8.80589 -0.236853 0.749662
upperback 7.974 -0.307661 1.66968
thorax 3.35603 -0.169691 1.32686
lowerneck -11.9024 0.708213 -0.966379
upperneck 25.923 1.31877 -0.43975
head 10.2177 0.455056 0.169092
rclavicle -4.27387e-015 -5.36719e-015
rhumerus -27.1167 -3.3782 -85.8441
rradius 36.3795
rwrist 17.9194
rhand -20.0181 -26.3523
rfingers 7.12502
rthumb 6.32233 -56.2379
lclavicle -4.27387e-015 -5.36719e-015
lhumerus -26.3852 -10.0039 92.4087
lradius 34.4524
lwrist 21.6314
lhand -30.3136 -3.6117
lfingers 7.12502
lthumb -3.62026 26.3373
rfemur -31.7855 -3.72636 20.9278
rtibia 32.2187
rfoot -13.3802 1.17473
rtoes 12.3916
lfemur -31.2988 8.20085 -18.9788
ltibia 31.4721
lfoot -12.3544 3.64313
ltoes 3.99855
67
root 0.106077 17.369 -15.0653 14.0446 -0.943913 -2.13163
lowerback 8.88498 -0.238584 0.744195
upperback 7.97775 -0.30897 1.67369
thorax 3.31664 -0.170737 1.33451
lowerneck -11.9485 0.715538 -0.96035
upperneck 25.8742 1.32961 -0.446704
head 10.2089 0.460026 0.167018
rclavicle 9.93923e-017 1.60022e-014
rhumerus -27.0797 -3.33812 -85.8321
rradius 36.4223
rwrist 17.8826
rhand -20.0175 -26.3562
rfingers 7.12502
rthumb 6.32291 -56.2418
lclavicle 9.93923e-017 1.60022e-014
lhumerus -26.4225 -10.0283 92.3597
lradius 34.4534
lwrist 21.8575
lhand -30.2652 -3.75808
lfingers 7.12502
lthumb -3.57361 26.1917
rfemur -31.9015 -3.68799 20.9162
rtibia 32.3528
rfoot -13.4073 1.13322
rtoes 12.3484
lfemur -31.4231 8.21194 -18.9947
ltibia 31.6184
lfoot -12.393 3.64049
ltoes 4.01779
68
root 0.1085 17.3634 -15.072 14.0688 -0.945756 -2.13731
lowerback 8.97153 -0.240618 0.738358
upperback 7.98326 -0.310645 1.68024
thorax 3.27506 -0.172057 1.34506
lowerneck -11.9968 0.722461 -0.95514
upperneck 25.8206 1.34131 -0.458401
head 10.1989 0.464808 0.163518
rclavicle -7.55382e-015 -6.95746e-015
rhumerus -27.0462 -3.29703 -85.8136
rradius 36.4691
rwrist 17.842
rhand -20.0024 -26.3723
rfingers 7.12502
rthumb 6.33752 -56.2575
lclavicle -7.55382e-015 -6.95746e-015
lhumerus -26.4525 -10.0425 92.3049
lradius 34.446
lwrist 22.0803
lhand -30.1527 -3.80097
lfingers 7.12502
lthumb -3.46495 26.1506
rfemur -32.0338 -3.64661 20.9079
rtibia 32.5016
rfoot -13.4366 1.08832
rtoes 12.3016
lfemur -31.566 8.22451 -19.0084
ltibia 31.7828
lfoot -12.4348 3.6369
ltoes 4.0183
69
root 0.110717 17.357 -15.0798 14.099 -0.943877 -2.14481
lowerback 9.06802 -0.243298 0.731963
upperback 7.98848 -0.313038 1.68832
thorax 3.2278 -0.173797 1.35763
lowerneck -12.0484 0.729334 -0.946469
upperneck 25.7651 1.35361 -0.475556
head 10.189 0.46958 0.157592
rclavicle -4.87022e-015 -1.46107e-014
rhumerus -27.0167 -3.25988 -85.7905
rradius 36.5134
rwrist 17.8083
rhand -19.9893 -26.3743
rfingers 7.12502
rthumb 6.35011 -56.2592
lclavicle -4.87022e-015 -1.46107e-014
lhumerus -26.4784 -10.0521 92.2455
lradius 34.4306
lwrist 22.29
lhand -30.0227 -3.8103
lfingers 7.12502
lthumb -3.33936 26.1433
rfemur -32.1848 -3.60204 20.9022
rtibia 32.6663
rfoot -13.4682 1.03831
rtoes 12.2567
lfemur -31.7314 8.23719 -19.0203
ltibia 31.9671
lfoot -12.4791 3.6305
ltoes 4.0137
70
root 0.112789 17.3498 -15.0886 14.139 -0.940221 -2.15346
lowerback 9.16926 -0.245653 0.726113
upperback 7.99427 -0.314904 1.69703
thorax 3.17855 -0.175264 1.37054
lowerneck -12.0978 0.734766 -0.941313
upperneck 25.6981 1.36404 -0.490866
head 10.1744 0.473481 0.152655
rclavicle 1.19271e-015 1.77912e-014
rhumerus -26.9869 -3.22839 -85.7635
rradius 36.5541
rwrist 17.7802
rhand -19.9754 -26.3664
rfingers 7.12502
rthumb 6.36358 -56.2508
lclavicle 1.19271e-015 1.77912e-014
lhumerus -26.4975 -10.0492 92.1776
lradius 34.413
lwrist 22.4853
lhand -29.8512 -3.76217
lfingers 7.12502
lthumb -3.17372 26.194
rfemur -32.3596 -3.55452 20.8982
rtibia 32.8473
rfoot -13.5023 0.98532
rtoes 12.212
lfemur -31.9232 8.24858 -19.032
ltibia 32.1703
lfoot -12.5236 3.62451
ltoes 4.00344
71
root 0.114812 17.3419 -15.0985 14.1854 -0.936054 -2.16107
lowerback 9.27948 -0.247888 0.720326
upperback 8.00202 -0.316451 1.70379
thorax 3.12648 -0.176514 1.38143
lowerneck -12.1509 0.739044 -0.934834
upperneck 25.6253 1.37248 -0.506003
head 10.1585 0.476654 0.147323
rclavicle 8.94531e-016 1.16289e-014
rhumerus -26.958 -3.20057 -85.7349
rradius 36.5937
rwrist 17.7527
rhand -19.9683 -26.335
rfingers 7.12502
rthumb 6.37044 -56.2192
lclavicle 8.94531e-016 1.16289e-014
lhumerus -26.5169 -10.0385 92.101
lradius 34.4019
lwrist 22.6712
lhand -29.6977 -3.79846
lfingers 7.12502
lthumb -3.02555 26.1598
rfemur -32.5547 -3.50726 20.8936
rtibia 33.0447
rfoot -13.5387 0.932797
rtoes 12.1638
lfemur -32.1365 8.26255 -19.047
ltibia 32.3907
lfoot -12.5689 3.61494
ltoes 3.99703
72
root 0.116869 17.3333 -15.1093 14.2374 -0.932123 -2.16765
lowerback 9.39827 -0.250092 0.714078
upperback 8.01235 -0.317859 1.70891
thorax 3.07248 -0.177673 1.39093
lowerneck -12.1999 0.741671 -0.931588
upperneck 25.5372 1.37767 -0.515762
head 10.1362 0.478787 0.143985
rclavicle -7.55382e-015 1.78906e-015
rhumerus -26.9316 -3.17309 -85.7052
rradius 36.636
rwrist 17.7181
rhand -19.9733 -26.2831
rfingers 7.12502
rthumb 6.3656 -56.1674
lclavicle -7.55382e-015 1.78906e-015
lhumerus -26.5385 -10.0186 92.0176
lradius 34.3978
lwrist 22.8393
lhand -29.5796 -3.9072
lfingers 7.12502
lthumb -2.9115 26.0527
rfemur -32.7677 -3.46216 20.8882
rtibia 33.2572
rfoot -13.5788 0.883031
rtoes 12.1142
lfemur -32.3677 8.27923 -19.0657
ltibia 32.6249
lfoot -12.6152 3.60193
ltoes 4.00158
73
root 0.118971 17.3241 -15.1209 14.2915 -0.932143 -2.173
lowerback 9.52711 -0.250957 0.706415
upperback 8.02625 -0.317475 1.71218
thorax 3.01677 -0.177961 1.39925
lowerneck -12.249 0.743392 -0.928535
upperneck 25.4415 1.38152 -0.52546
head 10.1111 0.480361 0.140525
rclavicle 8.74653e-015 -1.2921e-015
rhumerus -26.9086 -3.14708 -85.673
rradius 36.6817
rwrist 17.6677
rhand -19.9833 -26.2275
rfingers 7.12502
rthumb 6.35598 -56.1121
lclavicle 8.74653e-015 -1.2921e-015
lhumerus -26.5657 -9.9939 91.9302
lradius 34.3998
lwrist 22.9878
lhand -29.5435 -4.1525
lfingers 7.12502
lthumb -2.87665 25.8078
rfemur -32.9933 -3.41794 20.8813
rtibia 33.4826
rfoot -13.6218 0.837417
rtoes 12.0588
lfemur -32.6102 8.30123 -19.0884
ltibia 32.8702
lfoot -12.6634 3.58759
ltoes 4.00831
74
root 0.121264 17.3147 -15.1332 14.3493 -0.93976 -2.17716
lowerback 9.65926 -0.249097 0.698377
upperback 8.0478 -0.313606 1.71186
thorax 2.9673 -0.176459 1.40387
lowerneck -12.2924 0.741848 -0.928217
upperneck 25.3234 1.37995 -0.530871
head 10.0768 0.479899 0.138301
rclavicle -4.87022e-015 1.5704e-014
rhumerus -26.8781 -3.12891 -85.6401
rradius 36.726
rwrist 17.6062
rhand -19.9984 -26.185
rfingers 7.12502
rthumb 6.34133 -56.0701
lclavicle -4.87022e-015 1.5704e-014
lhumerus -26.5877 -9.96734 91.8357
lradius 34.4004
lwrist 23.1198
lhand -29.6579 -4.65213
lfingers 7.12502
lthumb -2.98704 25.3067
rfemur -33.2321 -3.37462 20.8727
rtibia 33.7186
rfoot -13.6666 0.800033
rtoes 12.0017
lfemur -32.8627 8.32785 -19.1155
ltibia 33.1239
lfoot -12.7136 3.57538
ltoes 4.02112
75
root 0.123669 17.3048 -15.1461 14.4069 -0.954626 -2.18529
lowerback 9.80532 -0.244512 0.691806
upperback 8.07212 -0.305916 1.71209
thorax 2.91316 -0.173018 1.40802
lowerneck -12.3398 0.740701 -0.924627
upperneck 25.2018 1.37945 -0.541076
head 10.0422 0.479707 0.133983
rclavicle -2.38542e-015 1.59028e-014
rhumerus -26.8479 -3.12067 -85.6004
rradius 36.764
rwrist 17.5389
rhand -20.0296 -26.1475
rfingers 7.12502
rthumb 6.3112 -56.0335
lclavicle -2.38542e-015 1.59028e-014
lhumerus -26.6071 -9.9423 91.7414
lradius 34.3871
lwrist 23.2474
lhand -29.8696 -5.26947
lfingers 7.12502
lthumb -3.19153 24.6864
rfemur -33.4789 -3.32908 20.868
rtibia 33.9636
rfoot -13.7123 0.766557
rtoes 11.9387
lfemur -33.1209 8.36152 -19.1404
ltibia 33.3852
lfoot -12.7673 3.56362
ltoes 4.04579
76
root 0.126227 17.2947 -15.1598 14.4659 -0.976476 -2.19321
lowerback 9.96341 -0.237896 0.684342
upperback 8.09965 -0.295497 1.71125
thorax 2.85589 -0.168243 1.41142
lowerneck -12.3853 0.739558 -0.924754
upperneck 25.0668 1.37882 -0.548255
head 10.0024 0.479572 0.131306
rclavicle 1.59028e-015 8.15017e-015
rhumerus -26.8149 -3.12462 -85.5549
rradius 36.7916
rwrist 17.4769
rhand -20.0647 -26.1321
rfingers 7.12502
rthumb 6.2774 -56.0191
lclavicle 1.59028e-015 8.15017e-015
lhumerus -26.6187 -9.91344 91.6436
lradius 34.3564
lwrist 23.3793
lhand -30.1119 -5.90737
lfingers 7.12502
lthumb -3.42551 24.0449
rfemur -33.7355 -3.28396 20.863
rtibia 34.2163
rfoot -13.7576 0.739949
rtoes 11.876
lfemur -33.3857 8.39888 -19.1676
ltibia 33.6532
lfoot -12.8243 3.55535
ltoes 4.07159
77
root 0.128817 17.2841 -15.1747 14.5291 -1.00191 -2.20129
lowerback 10.1356 -0.229601 0.676779
upperback 8.12763 -0.28267 1.70959
thorax 2.79147 -0.162251 1.41387
lowerneck -12.4406 0.740215 -0.912785
upperneck 24.932 1.38142 -0.568463
head 9.96487 0.480546 0.122458
rclavicle -6.85807e-015 -2.5842e-015
rhumerus -26.7857 -3.13969 -85.5031
rradius 36.8144
rwrist 17.4268
rhand -20.1082 -26.1236
rfingers 7.12502
rthumb 6.23533 -56.0119
lclavicle -6.85807e-015 -2.5842e-015
lhumerus -26.6266 -9.88295 91.5439
lradius 34.3072
lwrist 23.5182
lhand -30.283 -6.3853
lfingers 7.12502
lthumb -3.59075 23.5642
rfemur -34.0059 -3.23805 20.8588
rtibia 34.4766
rfoot -13.8001 0.715503
rtoes 11.8155
lfemur -33.6624 8.43843 -19.1963
ltibia 33.9283
lfoot -12.8827 3.54855
ltoes 4.09569
78
root 0.131472 17.2734 -15.1906 14.6055 -1.02816 -2.20938
lowerback 10.3071 -0.220547 0.668828
upperback 8.15814 -0.268987 1.70879
thorax 2.73013 -0.155884 1.41733
lowerneck -12.5002 0.740983 -0.898279
upperneck 24.7872 1.3849 -0.594119
head 9.92467 0.481617 0.111395
rclavicle 9.93923e-017 4.67144e-015
rhumerus -26.7496 -3.16934 -85.4448
rradius 36.8248
rwrist 17.406
rhand -20.1491 -26.1349
rfingers 7.12502
rthumb 6.19583 -56.0243
lclavicle 9.93923e-017 4.67144e-015
lhumerus -26.6166 -9.83972 91.4403
lradius 34.2336
lwrist 23.6573
lhand -30.387 -6.699
lfingers 7.12502
lthumb -3.69115 23.2488
rfemur -34.2996 -3.19265 20.8559
rtibia 34.7445
rfoot -13.841 0.691474
rtoes 11.7542
lfemur -33.9612 8.47451 -19.2269
ltibia 34.2105
lfoot -12.9407 3.54743
ltoes 4.11855
